<svg id="Layer_1" data-name="Layer 1" xmlns="http://www.w3.org/2000/svg" xmlns:xlink="http://www.w3.org/1999/xlink" viewBox="0 0 216.47 62.5"><defs><style>.cls-1{fill:url(#linear-gradient);}.cls-2{fill:url(#linear-gradient-2);}.cls-3{fill:url(#linear-gradient-3);}.cls-4{fill:url(#linear-gradient-4);}.cls-5{fill:url(#linear-gradient-5);}.cls-6{fill:url(#linear-gradient-6);}.cls-7{fill:url(#linear-gradient-7);}.cls-8{fill:url(#linear-gradient-8);}.cls-9{fill:url(#linear-gradient-9);}.cls-10{fill:url(#linear-gradient-10);}.cls-11{fill:url(#linear-gradient-11);}.cls-12{fill:url(#linear-gradient-12);}.cls-13{fill:url(#linear-gradient-13);}.cls-14{fill:url(#linear-gradient-14);}</style><linearGradient id="linear-gradient" y1="38.51" x2="47.98" y2="38.51" gradientUnits="userSpaceOnUse"><stop offset="0" stop-color="#0c36bc"/><stop offset="0" stop-color="#103fc2"/><stop offset="0" stop-color="#1e60d7"/><stop offset="0" stop-color="#236ddf"/><stop offset="0.06" stop-color="#297ae7"/><stop offset="0.16" stop-color="#308bf2"/><stop offset="0.3" stop-color="#3596f9"/><stop offset="0.48" stop-color="#389dfe"/><stop offset="1" stop-color="#399fff"/><stop offset="1" stop-color="#55adff"/><stop offset="1" stop-color="#9dcfff"/><stop offset="1" stop-color="#fff"/></linearGradient><linearGradient id="linear-gradient-2" x1="13.79" y1="23.99" x2="61.76" y2="23.99" xlink:href="#linear-gradient"/><linearGradient id="linear-gradient-3" x1="939.7" y1="540.46" x2="943.8" y2="540.46" xlink:href="#linear-gradient"/><linearGradient id="linear-gradient-4" x1="938.68" y1="540.46" x2="944.82" y2="540.46" xlink:href="#linear-gradient"/><linearGradient id="linear-gradient-5" x1="952.92" y1="540.46" x2="976.06" y2="540.46" xlink:href="#linear-gradient"/><linearGradient id="linear-gradient-6" x1="951.9" y1="540.46" x2="977.08" y2="540.46" xlink:href="#linear-gradient"/><linearGradient id="linear-gradient-7" x1="983.69" y1="546.34" x2="1003.3" y2="546.34" xlink:href="#linear-gradient"/><linearGradient id="linear-gradient-8" x1="982.67" y1="546.34" x2="1004.32" y2="546.34" xlink:href="#linear-gradient"/><linearGradient id="linear-gradient-9" x1="1007.4" y1="546.34" x2="1029.97" y2="546.34" xlink:href="#linear-gradient"/><linearGradient id="linear-gradient-10" x1="1005.96" y1="546.34" x2="1031.41" y2="546.34" xlink:href="#linear-gradient"/><linearGradient id="linear-gradient-11" x1="1034.96" y1="540.46" x2="1039.06" y2="540.46" xlink:href="#linear-gradient"/><linearGradient id="linear-gradient-12" x1="1033.94" y1="540.46" x2="1040.08" y2="540.46" xlink:href="#linear-gradient"/><linearGradient id="linear-gradient-13" x1="1047" y1="546.34" x2="1066.61" y2="546.34" xlink:href="#linear-gradient"/><linearGradient id="linear-gradient-14" x1="1045.98" y1="546.34" x2="1067.63" y2="546.34" xlink:href="#linear-gradient"/></defs><title>logo</title><rect class="cls-1" y="14.52" width="47.98" height="47.98"/><polygon class="cls-2" points="13.79 0 13.79 9.56 51.84 9.56 51.84 47.98 61.77 47.98 61.77 0 13.79 0"/><path class="cls-3" d="M939.7,524.61V519.9h4.1v4.71ZM940,561V531.66h3.52V561Z" transform="translate(-851.16 -509.5)"/><path class="cls-4" d="M944.53,562H939v-31.4h5.56ZM941,560h1.49V532.68H941Zm3.81-34.37h-6.14v-6.75h6.14Zm-4.1-2h2.06v-2.67h-2.06Z" transform="translate(-851.16 -509.5)"/><path class="cls-5" d="M975.27,554.86a10.43,10.43,0,0,1-2.16,3.21,10.06,10.06,0,0,1-3.23,2.16,9.87,9.87,0,0,1-3.94.79h-13V519.9h13a10,10,0,0,1,3.94.79,10.06,10.06,0,0,1,5.39,5.39,9.92,9.92,0,0,1,.79,3.95v20.9A9.82,9.82,0,0,1,975.27,554.86ZM972.36,530a6.28,6.28,0,0,0-.52-2.57,6.64,6.64,0,0,0-1.41-2.09,6.55,6.55,0,0,0-2.1-1.42,6.27,6.27,0,0,0-2.56-.52h-9.15V557.5h9.15a6.44,6.44,0,0,0,2.56-.52,6.69,6.69,0,0,0,2.1-1.41,6.45,6.45,0,0,0,1.41-2.07,6.31,6.31,0,0,0,.52-2.57Z" transform="translate(-851.16 -509.5)"/><path class="cls-6" d="M965.94,562h-14V518.88h14a11.14,11.14,0,0,1,4.34.87,11.13,11.13,0,0,1,5.93,5.93,11,11,0,0,1,.87,4.35v20.9a10.88,10.88,0,0,1-.87,4.33h0a11.32,11.32,0,0,1-2.38,3.53,11.08,11.08,0,0,1-3.55,2.38A10.92,10.92,0,0,1,965.94,562Zm-12-2h12a9,9,0,0,0,3.54-.7,9.14,9.14,0,0,0,2.9-1.95,9,9,0,0,0,2-2.9h0a8.79,8.79,0,0,0,.71-3.52V530a9,9,0,0,0-.71-3.55,9,9,0,0,0-4.85-4.85,9,9,0,0,0-3.54-.71h-12Zm11.83-1.49H955.6v-36.1h10.17a7.4,7.4,0,0,1,3,.6,7.86,7.86,0,0,1,2.41,1.64,7.73,7.73,0,0,1,1.63,2.4,7.41,7.41,0,0,1,.6,3v20.9a7.4,7.4,0,0,1-.6,3,7.7,7.7,0,0,1-1.64,2.4,7.85,7.85,0,0,1-2.4,1.61A7.4,7.4,0,0,1,965.77,558.51Zm-8.13-2h8.13a5.35,5.35,0,0,0,2.16-.44,5.85,5.85,0,0,0,1.78-1.19,5.5,5.5,0,0,0,1.2-1.76,5.34,5.34,0,0,0,.43-2.16V530a5.31,5.31,0,0,0-.43-2.16,5.78,5.78,0,0,0-3-3,5.51,5.51,0,0,0-2.16-.43h-8.13Z" transform="translate(-851.16 -509.5)"/><path class="cls-7" d="M1002.63,556.32a8.6,8.6,0,0,1-4.61,4.6,8.43,8.43,0,0,1-3.35.68h-2.35a8.44,8.44,0,0,1-3.36-.68,8.54,8.54,0,0,1-2.75-1.85,8.7,8.7,0,0,1-1.85-2.75,8.42,8.42,0,0,1-.67-3.35V539.72a8.44,8.44,0,0,1,.67-3.36,8.63,8.63,0,0,1,4.6-4.6,8.44,8.44,0,0,1,3.36-.67h2.35a8.42,8.42,0,0,1,3.35.67,8.86,8.86,0,0,1,2.76,1.85,8.7,8.7,0,0,1,1.85,2.75,8.61,8.61,0,0,1,.67,3.36v6.91H987.21v6.54a5,5,0,0,0,.41,2,5,5,0,0,0,2.7,2.71,5,5,0,0,0,2,.4h2.35a4.91,4.91,0,0,0,2-.4,5.09,5.09,0,0,0,2.71-2.71,5,5,0,0,0,.4-2v-1.95l3.53.57V553A8.6,8.6,0,0,1,1002.63,556.32Zm-2.86-16.8a5,5,0,0,0-.4-2,5.19,5.19,0,0,0-1.09-1.62,5.37,5.37,0,0,0-1.62-1.09,5.09,5.09,0,0,0-2-.4h-2.35a5.17,5.17,0,0,0-2,.4,5.37,5.37,0,0,0-1.62,1.09,5.16,5.16,0,0,0-1.08,1.62,5,5,0,0,0-.41,2v4.36h12.56Z" transform="translate(-851.16 -509.5)"/><path class="cls-8" d="M994.67,562.62h-2.35a9.63,9.63,0,0,1-6.83-2.83,9.72,9.72,0,0,1-2.07-3.07,9.51,9.51,0,0,1-.75-3.75V539.72a9.56,9.56,0,0,1,.75-3.76,9.69,9.69,0,0,1,5.14-5.14,9.56,9.56,0,0,1,3.76-.75h2.35a9.48,9.48,0,0,1,3.75.75,9.61,9.61,0,0,1,5.14,5.14,9.39,9.39,0,0,1,.76,3.76v7.93H988.23v5.52a4,4,0,0,0,.32,1.58,4.25,4.25,0,0,0,.88,1.31,4.06,4.06,0,0,0,1.3.87,3.8,3.8,0,0,0,1.59.32h2.35a3.86,3.86,0,0,0,1.59-.32,4.06,4.06,0,0,0,1.3-.87,4.33,4.33,0,0,0,.88-1.3,4.06,4.06,0,0,0,.31-1.59V550l5.57.9V553a9.38,9.38,0,0,1-.76,3.75h0a9.53,9.53,0,0,1-2.06,3.07,9.71,9.71,0,0,1-3.08,2.07A9.48,9.48,0,0,1,994.67,562.62Zm-2.35-30.51a7.56,7.56,0,0,0-3,.59,7.57,7.57,0,0,0-4.06,4.06,7.56,7.56,0,0,0-.59,3V553a7.59,7.59,0,0,0,2.22,5.38,7.83,7.83,0,0,0,2.43,1.64,7.56,7.56,0,0,0,3,.59h2.35a7.34,7.34,0,0,0,3-.6,7.57,7.57,0,0,0,2.44-1.63,7.86,7.86,0,0,0,1.63-2.43,7.54,7.54,0,0,0,.59-2.95v-.31l-1.49-.25v.76a6,6,0,0,1-.48,2.39A6.21,6.21,0,0,1,999,557.5a6.14,6.14,0,0,1-4.33,1.79h-2.35a5.89,5.89,0,0,1-2.4-.49,6,6,0,0,1-1.94-1.3,6.35,6.35,0,0,1-1.3-1.94,6,6,0,0,1-.49-2.39v-7.56h16.09v-5.89a7.56,7.56,0,0,0-.59-3,8,8,0,0,0-1.63-2.43,7.64,7.64,0,0,0-5.39-2.22Zm8.47,12.78h-14.6v-5.37a6.06,6.06,0,0,1,.49-2.4,6,6,0,0,1,3.24-3.24,6.06,6.06,0,0,1,2.4-.49h2.35a6.09,6.09,0,0,1,2.4.49,6.31,6.31,0,0,1,1.93,1.3,6.21,6.21,0,0,1,1.31,1.94,6.05,6.05,0,0,1,.48,2.4Zm-12.56-2h10.52v-3.34a4,4,0,0,0-.31-1.59,4.06,4.06,0,0,0-2.18-2.18,4,4,0,0,0-1.59-.32h-2.35a4,4,0,0,0-1.59.32,4.06,4.06,0,0,0-2.18,2.18,4,4,0,0,0-.32,1.59Z" transform="translate(-851.16 -509.5)"/><path class="cls-9" d="M1019.56,561h-1.75l-10.41-29.36h3.53l7.65,22.25.12,1.52.11-1.52,7.63-22.25H1030Z" transform="translate(-851.16 -509.5)"/><path class="cls-10" d="M1020.28,562h-3.19L1006,530.64h5.69l7.05,20.47,7-20.47h5.7Zm-1.75-2h.31l9.68-27.32h-1.35l-7.35,21.44-.11,1.39h-2l-.1-1.39-7.38-21.44h-1.36Z" transform="translate(-851.16 -509.5)"/><path class="cls-11" d="M1035,524.61V519.9h4.1v4.71Zm.28,36.41V531.66h3.53V561Z" transform="translate(-851.16 -509.5)"/><path class="cls-12" d="M1039.79,562h-5.57v-31.4h5.57Zm-3.53-2h1.49V532.68h-1.49Zm3.82-34.37h-6.14v-6.75h6.14Zm-4.11-2H1038v-2.67H1036Z" transform="translate(-851.16 -509.5)"/><path class="cls-13" d="M1065.44,561l-2-2.92a9.26,9.26,0,0,1-3,2.54,8.34,8.34,0,0,1-4,1h-.89a8.48,8.48,0,0,1-3.36-.68,8.63,8.63,0,0,1-4.6-4.6A8.42,8.42,0,0,1,1047,553v-.29a8.44,8.44,0,0,1,.67-3.36,8.7,8.7,0,0,1,1.85-2.75,8.82,8.82,0,0,1,2.75-1.85,8.47,8.47,0,0,1,3.36-.67h7.45v-4.53a5.09,5.09,0,0,0-1.49-3.62,5.25,5.25,0,0,0-1.62-1.09,5.09,5.09,0,0,0-2-.4h-2.06a5.14,5.14,0,0,0-2,.4,5.37,5.37,0,0,0-1.62,1.09,5.09,5.09,0,0,0-1.49,3.62v1.06l-3.52-.58v-.28a8.44,8.44,0,0,1,.67-3.36,8.54,8.54,0,0,1,1.85-2.75,8.7,8.7,0,0,1,2.75-1.85,8.44,8.44,0,0,1,3.36-.67H1058a8.47,8.47,0,0,1,3.36.67,8.82,8.82,0,0,1,2.75,1.85,8.7,8.7,0,0,1,1.85,2.75,8.44,8.44,0,0,1,.67,3.36V561Zm-2.36-14.22h-7.45a4.91,4.91,0,0,0-2,.4,5.19,5.19,0,0,0-2.71,2.74,5,5,0,0,0-.4,2v1.24a5,5,0,0,0,.4,2,5,5,0,0,0,1.09,1.62,5.19,5.19,0,0,0,1.62,1.09,4.91,4.91,0,0,0,2,.4H1058a4.91,4.91,0,0,0,2-.4,5.08,5.08,0,0,0,1.62-1.09,5,5,0,0,0,1.09-1.62,5,5,0,0,0,.4-2Z" transform="translate(-851.16 -509.5)"/><path class="cls-14" d="M1056.52,562.62h-.89a9.57,9.57,0,0,1-3.76-.76,9.67,9.67,0,0,1-3.07-2.07,9.53,9.53,0,0,1-2.06-3.07A9.31,9.31,0,0,1,1046,553v-.29a9.36,9.36,0,0,1,.76-3.76,9.64,9.64,0,0,1,2.06-3.07,9.83,9.83,0,0,1,3.07-2.07,9.56,9.56,0,0,1,3.76-.75h6.44v-3.51a4,4,0,0,0-.32-1.59,4.06,4.06,0,0,0-2.18-2.18,4,4,0,0,0-1.59-.32h-2.06a4,4,0,0,0-1.59.32,4.28,4.28,0,0,0-1.31.87,4.41,4.41,0,0,0-.87,1.31,4,4,0,0,0-.32,1.59v2.26l-5.56-.91v-1.15A9.56,9.56,0,0,1,1047,536a9.69,9.69,0,0,1,5.14-5.14,9.53,9.53,0,0,1,3.76-.75H1058a9.56,9.56,0,0,1,3.76.75,10,10,0,0,1,3.07,2.07,9.64,9.64,0,0,1,2.06,3.07,9.39,9.39,0,0,1,.76,3.76V562h-2.74l-1.52-2.27a10.55,10.55,0,0,1-2.42,1.77A9.39,9.39,0,0,1,1056.52,562.62Zm-.89-17.55a7.47,7.47,0,0,0-3,.59,7.57,7.57,0,0,0-2.44,1.63,8,8,0,0,0-1.63,2.43,7.56,7.56,0,0,0-.59,3V553a7.51,7.51,0,0,0,.59,2.95,7.86,7.86,0,0,0,1.63,2.43,7.76,7.76,0,0,0,2.44,1.64,7.51,7.51,0,0,0,3,.59h.89a7.42,7.42,0,0,0,3.48-.84,8.17,8.17,0,0,0,2.68-2.26l.86-1.14,2,3.08v-19.7a7.56,7.56,0,0,0-.59-3,7.8,7.8,0,0,0-1.63-2.43,7.57,7.57,0,0,0-2.44-1.63,7.47,7.47,0,0,0-3-.59h-2.06a7.56,7.56,0,0,0-3,.59,7.57,7.57,0,0,0-4.06,4.06,7.4,7.4,0,0,0-.57,2.38l1.46.24a6,6,0,0,1,.49-2.26,6.18,6.18,0,0,1,1.3-1.94,6.35,6.35,0,0,1,1.94-1.3,6.06,6.06,0,0,1,2.4-.49H1058a6.09,6.09,0,0,1,2.4.49,6.11,6.11,0,0,1,3.24,3.24,6.05,6.05,0,0,1,.48,2.4v5.55Zm2.35,14.22h-2.35a5.89,5.89,0,0,1-2.4-.49,6,6,0,0,1-1.93-1.3,6.21,6.21,0,0,1-1.31-1.94,6,6,0,0,1-.48-2.39v-1.24a6,6,0,0,1,.48-2.39,6.34,6.34,0,0,1,1.3-1.95,6.09,6.09,0,0,1,4.34-1.81h8.47v7.39a6,6,0,0,1-.48,2.39,6.21,6.21,0,0,1-1.31,1.94,6.14,6.14,0,0,1-4.33,1.79Zm-2.35-11.47a4.05,4.05,0,0,0-2.89,1.2,4.62,4.62,0,0,0-.88,1.32,4,4,0,0,0-.31,1.59v1.24a3.94,3.94,0,0,0,.31,1.58,4.25,4.25,0,0,0,.88,1.31,4.06,4.06,0,0,0,1.3.87,3.86,3.86,0,0,0,1.59.32H1058a4,4,0,0,0,1.59-.32,4.06,4.06,0,0,0,1.3-.87,4.2,4.2,0,0,0,.88-1.3,4,4,0,0,0,.32-1.59v-5.35Z" transform="translate(-851.16 -509.5)"/></svg>